<svg width="197" height="21" viewBox="0 0 197 21" fill="none" xmlns="http://www.w3.org/2000/svg">
<path d="M0.492012 20V1.47422H8.10126C9.3778 1.47422 10.505 1.69802 11.4831 2.14563C12.4778 2.59323 13.257 3.25634 13.8206 4.13497C14.3843 5.0136 14.6661 6.0994 14.6661 7.3925C14.6661 8.6524 14.376 9.7217 13.7958 10.6003C13.2321 11.479 12.4529 12.1504 11.4583 12.6146C10.4802 13.0622 9.3612 13.286 8.10126 13.286H4.34637V20H0.492012ZM4.34637 9.9289H8.12612C8.93844 9.9289 9.585 9.6968 10.0657 9.2327C10.5631 8.7685 10.8117 8.1551 10.8117 7.3925C10.8117 6.6134 10.5631 5.99169 10.0657 5.52751C9.585 5.06333 8.93844 4.83124 8.12612 4.83124H4.34637V9.9289ZM22.3187 20.2984C20.9759 20.2984 19.7491 19.9917 18.6384 19.3783C17.5442 18.7649 16.6739 17.9278 16.0274 16.8668C15.3808 15.7892 15.0576 14.5707 15.0576 13.2114C15.0576 11.8354 15.3808 10.6169 16.0274 9.5559C16.6739 8.495 17.5442 7.6578 18.6384 7.0444C19.7491 6.431 20.9759 6.1243 22.3187 6.1243C23.6615 6.1243 24.8799 6.431 25.9741 7.0444C27.0848 7.6578 27.9634 8.495 28.61 9.5559C29.2565 10.6169 29.5798 11.8354 29.5798 13.2114C29.5798 14.5707 29.2565 15.7892 28.61 16.8668C27.9634 17.9278 27.0848 18.7649 25.9741 19.3783C24.8799 19.9917 23.6615 20.2984 22.3187 20.2984ZM22.3187 16.9414C23.3465 16.9414 24.1671 16.5932 24.7805 15.897C25.4104 15.2007 25.7254 14.3055 25.7254 13.2114C25.7254 12.1338 25.4104 11.2469 24.7805 10.5506C24.1671 9.8378 23.3465 9.4813 22.3187 9.4813C21.3074 9.4813 20.4868 9.8378 19.8568 10.5506C19.2269 11.2469 18.9119 12.1338 18.9119 13.2114C18.9119 14.3055 19.2269 15.2007 19.8568 15.897C20.4868 16.5932 21.3074 16.9414 22.3187 16.9414ZM31.0724 20V6.4227H34.5537V8.4618C34.9019 7.6163 35.3909 7.0444 36.0209 6.746C36.6674 6.431 37.4051 6.2735 38.234 6.2735H39.6514V9.5062H37.861C36.9492 9.5062 36.2115 9.788 35.6479 10.3517C35.0842 10.8987 34.8024 11.6779 34.8024 12.6892V20H31.0724ZM47.9023 20.1492C46.2611 20.1492 44.9846 19.7099 44.0729 18.8313C43.1776 17.9361 42.73 16.6927 42.73 15.1012V9.6554H40.3926V6.4227H40.5666C42.0089 6.4227 42.73 5.72645 42.73 4.3339V2.34456H46.4601V6.4227H49.643V9.6554H46.4601V15.1012C46.4601 16.4772 47.2309 17.1652 48.7727 17.1652C49.0048 17.1652 49.2949 17.1403 49.643 17.0906V20.0249C49.0959 20.1078 48.5157 20.1492 47.9023 20.1492ZM52.2128 20V9.6554H49.9002V6.4227H52.2128V6.0248C52.2128 4.41679 52.6853 3.17345 53.6303 2.29483C54.5752 1.4162 55.8931 0.976879 57.5841 0.976879C58.0814 0.976879 58.5207 1.01833 58.902 1.10122V4.28417C58.587 4.23444 58.3135 4.20957 58.0814 4.20957C56.6557 4.20957 55.9429 4.81466 55.9429 6.0248V6.4227H58.8772V9.6554H55.9429V20H52.2128ZM66.4194 20.2984C65.0766 20.2984 63.8498 19.9917 62.7391 19.3783C61.6449 18.7649 60.7746 17.9278 60.1281 16.8668C59.4815 15.7892 59.1583 14.5707 59.1583 13.2114C59.1583 11.8354 59.4815 10.6169 60.1281 9.5559C60.7746 8.495 61.6449 7.6578 62.7391 7.0444C63.8498 6.431 65.0766 6.1243 66.4194 6.1243C67.7622 6.1243 68.9807 6.431 70.0748 7.0444C71.1855 7.6578 72.0641 8.495 72.7107 9.5559C73.3572 10.6169 73.6805 11.8354 73.6805 13.2114C73.6805 14.5707 73.3572 15.7892 72.7107 16.8668C72.0641 17.9278 71.1855 18.7649 70.0748 19.3783C68.9807 19.9917 67.7622 20.2984 66.4194 20.2984ZM66.4194 16.9414C67.4472 16.9414 68.2678 16.5932 68.8812 15.897C69.5112 15.2007 69.8261 14.3055 69.8261 13.2114C69.8261 12.1338 69.5112 11.2469 68.8812 10.5506C68.2678 9.8378 67.4472 9.4813 66.4194 9.4813C65.4081 9.4813 64.5875 9.8378 63.9576 10.5506C63.3276 11.2469 63.0126 12.1338 63.0126 13.2114C63.0126 14.3055 63.3276 15.2007 63.9576 15.897C64.5875 16.5932 65.4081 16.9414 66.4194 16.9414ZM75.1731 20V1.47422H78.9031V20H75.1731ZM81.1411 5.20424V1.47422H84.8711V5.20424H81.1411ZM81.1411 20V6.4227H84.8711V20H81.1411ZM93.6243 20.2984C92.2814 20.2984 91.0547 19.9917 89.944 19.3783C88.8498 18.7649 87.9795 17.9278 87.3329 16.8668C86.6864 15.7892 86.3631 14.5707 86.3631 13.2114C86.3631 11.8354 86.6864 10.6169 87.3329 9.5559C87.9795 8.495 88.8498 7.6578 89.944 7.0444C91.0547 6.431 92.2814 6.1243 93.6243 6.1243C94.9671 6.1243 96.1855 6.431 97.2797 7.0444C98.3904 7.6578 99.269 8.495 99.916 9.5559C100.562 10.6169 100.885 11.8354 100.885 13.2114C100.885 14.5707 100.562 15.7892 99.916 16.8668C99.269 17.9278 98.3904 18.7649 97.2797 19.3783C96.1855 19.9917 94.9671 20.2984 93.6243 20.2984ZM93.6243 16.9414C94.6521 16.9414 95.4727 16.5932 96.0861 15.897C96.716 15.2007 97.031 14.3055 97.031 13.2114C97.031 12.1338 96.716 11.2469 96.0861 10.5506C95.4727 9.8378 94.6521 9.4813 93.6243 9.4813C92.613 9.4813 91.7924 9.8378 91.1624 10.5506C90.5325 11.2469 90.2175 12.1338 90.2175 13.2114C90.2175 14.3055 90.5325 15.2007 91.1624 15.897C91.7924 16.5932 92.613 16.9414 93.6243 16.9414ZM115.574 20.2984C114.248 20.2984 113.013 20.058 111.869 19.5773C110.742 19.0965 109.756 18.4251 108.91 17.5631C108.065 16.701 107.402 15.6898 106.921 14.5293C106.457 13.3688 106.225 12.1006 106.225 10.7247C106.225 9.3487 106.457 8.0805 106.921 6.9201C107.385 5.74303 108.04 4.73178 108.885 3.8863C109.731 3.02425 110.717 2.36114 111.844 1.89696C112.988 1.4162 114.232 1.17582 115.574 1.17582C116.917 1.17582 118.119 1.39962 119.18 1.84722C120.258 2.29483 121.169 2.89163 121.916 3.63763C122.662 4.38364 123.192 5.21253 123.507 6.1243L120.1 7.7655C119.785 6.8703 119.23 6.1326 118.434 5.55238C117.655 4.95558 116.702 4.65717 115.574 4.65717C114.48 4.65717 113.519 4.91413 112.69 5.42805C111.861 5.94196 111.214 6.6548 110.75 7.5666C110.303 8.4618 110.079 9.5145 110.079 10.7247C110.079 11.9349 110.303 12.9958 110.75 13.9076C111.214 14.8194 111.861 15.5323 112.69 16.0462C113.519 16.5601 114.48 16.817 115.574 16.817C116.702 16.817 117.655 16.5269 118.434 15.9467C119.23 15.3499 119.785 14.6039 120.1 13.7087L123.507 15.3499C123.192 16.2617 122.662 17.0906 121.916 17.8366C121.169 18.5826 120.258 19.1794 119.18 19.627C118.119 20.0746 116.917 20.2984 115.574 20.2984ZM125.242 20V6.4227H128.723V8.4618C129.071 7.6163 129.56 7.0444 130.19 6.746C130.837 6.431 131.575 6.2735 132.403 6.2735H133.821V9.5062H132.03C131.119 9.5062 130.381 9.788 129.817 10.3517C129.254 10.8987 128.972 11.6779 128.972 12.6892V20H125.242ZM141.437 20.2984C140.011 20.2984 138.76 19.9834 137.682 19.3535C136.621 18.7069 135.792 17.8449 135.195 16.7673C134.615 15.6898 134.325 14.4961 134.325 13.1865C134.325 11.8271 134.623 10.6169 135.22 9.5559C135.834 8.495 136.654 7.6578 137.682 7.0444C138.726 6.431 139.895 6.1243 141.188 6.1243C142.465 6.1243 143.609 6.4227 144.62 7.0195C145.631 7.6163 146.435 8.4204 147.032 9.4316C147.629 10.4263 147.927 11.5536 147.927 12.8135C147.927 13.0787 147.911 13.344 147.877 13.6092C147.861 13.8579 147.819 14.0734 147.753 14.2558H138.204C138.32 15.1012 138.668 15.7809 139.249 16.2948C139.829 16.8088 140.575 17.0657 141.487 17.0657C142.15 17.0657 142.713 16.9331 143.178 16.6678C143.658 16.4026 144.031 16.0379 144.297 15.5737L147.281 16.9911C146.866 17.9858 146.137 18.7898 145.092 19.4032C144.048 20 142.829 20.2984 141.437 20.2984ZM141.188 9.1083C140.459 9.1083 139.837 9.3156 139.323 9.73C138.809 10.1445 138.461 10.7413 138.279 11.5204H143.973C143.907 10.791 143.617 10.2108 143.103 9.7797C142.606 9.3321 141.967 9.1083 141.188 9.1083ZM153.451 20.2984C152.423 20.2984 151.528 20.1243 150.766 19.7762C150.02 19.4115 149.439 18.9307 149.025 18.3339C148.627 17.7205 148.428 17.0408 148.428 16.2948C148.428 15.2836 148.809 14.4547 149.572 13.8082C150.335 13.145 151.404 12.6726 152.78 12.3908L157.032 11.4955V11.0479C157.032 10.534 156.841 10.1279 156.46 9.8295C156.079 9.5145 155.573 9.357 154.943 9.357C154.28 9.357 153.692 9.5394 153.178 9.9041C152.68 10.2522 152.332 10.733 152.133 11.3463L148.926 9.8046C149.323 8.6773 150.061 7.7821 151.139 7.119C152.233 6.4559 153.501 6.1243 154.943 6.1243C156.104 6.1243 157.115 6.3315 157.977 6.746C158.856 7.1604 159.535 7.7407 160.016 8.4867C160.513 9.2161 160.762 10.0699 160.762 11.0479V20H157.281V18.7567C156.767 19.3037 156.195 19.7016 155.565 19.9503C154.952 20.1824 154.247 20.2984 153.451 20.2984ZM152.283 16.2451C152.283 16.6596 152.44 16.9828 152.755 17.2149C153.07 17.447 153.493 17.5631 154.023 17.5631C154.869 17.5631 155.582 17.2978 156.162 16.7673C156.742 16.2368 157.032 15.5903 157.032 14.8277V14.1812L153.451 14.9769C152.672 15.1593 152.283 15.582 152.283 16.2451ZM169.015 20.1492C167.374 20.1492 166.098 19.7099 165.186 18.8313C164.291 17.9361 163.843 16.6927 163.843 15.1012V9.6554H161.506V6.4227H161.68C163.122 6.4227 163.843 5.72645 163.843 4.3339V2.34456H167.573V6.4227H170.756V9.6554H167.573V15.1012C167.573 16.4772 168.344 17.1652 169.886 17.1652C170.118 17.1652 170.408 17.1403 170.756 17.0906V20.0249C170.209 20.1078 169.629 20.1492 169.015 20.1492ZM178.772 20.2984C177.429 20.2984 176.202 19.9917 175.091 19.3783C173.997 18.7649 173.127 17.9278 172.48 16.8668C171.834 15.7892 171.511 14.5707 171.511 13.2114C171.511 11.8354 171.834 10.6169 172.48 9.5559C173.127 8.495 173.997 7.6578 175.091 7.0444C176.202 6.431 177.429 6.1243 178.772 6.1243C180.115 6.1243 181.333 6.431 182.427 7.0444C183.538 7.6578 184.417 8.495 185.063 9.5559C185.71 10.6169 186.033 11.8354 186.033 13.2114C186.033 14.5707 185.71 15.7892 185.063 16.8668C184.417 17.9278 183.538 18.7649 182.427 19.3783C181.333 19.9917 180.115 20.2984 178.772 20.2984ZM178.772 16.9414C179.8 16.9414 180.62 16.5932 181.234 15.897C181.864 15.2007 182.178 14.3055 182.178 13.2114C182.178 12.1338 181.864 11.2469 181.234 10.5506C180.62 9.8378 179.8 9.4813 178.772 9.4813C177.76 9.4813 176.94 9.8378 176.31 10.5506C175.68 11.2469 175.365 12.1338 175.365 13.2114C175.365 14.3055 175.68 15.2007 176.31 15.897C176.94 16.5932 177.76 16.9414 178.772 16.9414ZM187.525 20V6.4227H191.007V8.4618C191.355 7.6163 191.844 7.0444 192.474 6.746C193.12 6.431 193.858 6.2735 194.687 6.2735H196.104V9.5062H194.314C193.402 9.5062 192.665 9.788 192.101 10.3517C191.537 10.8987 191.255 11.6779 191.255 12.6892V20H187.525Z" fill="black"/>
</svg>
